<svg xmlns="http://www.w3.org/2000/svg" width="1957.838" height="304">
  <path fill="none" d="M2 2h100v50H2Zm200 50h100v50H202Z" style="fill:#fff;fill-opacity:0;stroke:#29b6f6;stroke-width:4px"/>
  <path d="M2 102h100v50H2Z" style="fill:#29b6f6;fill-opacity:1;stroke:#29b6f6;stroke-width:4px"/>
  <path fill="none" d="M202 152h100v50H202ZM2 202h100v50H2Zm200 50h100v50H202Z" style="fill:#fff;fill-opacity:0;stroke:#29b6f6;stroke-width:4px"/>
  <path fill="none" d="M102 2h100v50H102Zm0 50h100v50H102Z" style="fill:#fff;fill-opacity:0;stroke:#0277bd;stroke-width:4px"/>
  <path d="M102 102h100v50H102Z" style="fill:#0277bd;fill-opacity:1;stroke:#0277bd;stroke-width:4px"/>
  <path fill="none" d="M102 152h100v50H102Zm0 50h100v50H102Zm0 50h100v50H102Z" style="fill:#fff;fill-opacity:0;stroke:#0277bd;stroke-width:4px"/>
  <path d="M429.947 67.827h12.133q31.547 0 31.547 30.853v107.813q0 30.507-31.547 30.507h-12.133q-16.987 0-21.494-13.52v61.36h-31.2V67.827h31.2v13.52q4.507-13.52 21.494-13.52Zm12.48 133.813v-98.453q0-6.24-2.08-7.974-2.08-2.08-8.32-2.08h-12.134q-6.24 0-9.013 2.774-2.427 2.773-2.427 9.36v94.293q0 6.587 2.427 9.36 2.773 2.773 9.013 2.773h12.134q6.24 0 8.32-1.733 2.08-2.08 2.08-8.32zm84.586 83.2h-20.8v-24.96h14.213q14.907 0 18.027-11.44l3.467-14.213h-16.987l-35.36-166.4h31.893l25.654 141.786 23.92-141.786h31.546L566.88 253.293q-7.627 31.547-39.867 31.547Zm127.92-73.147h62.746V237h-94.293V19.987h91.867v25.306h-60.32V112.2h49.92v25.307h-49.92zm88.052-191.706h75.574q32.24 0 32.24 30.506v156q0 30.507-32.24 30.507h-75.574Zm76.267 182.346V54.653q0-6.24-2.08-7.973-2.08-2.08-8.32-2.08h-34.32v167.787h34.32q6.24 0 8.32-1.734 2.08-2.08 2.08-8.32zM964.852 237l-8.667-50.267h-45.76L902.452 237h-31.2l38.48-217.013h45.413L996.398 237Zm-50.614-75.573h37.787l-19.76-114.4zM1098.318 237l-8.667-50.267h-45.76L1035.918 237h-31.2l38.48-217.013h45.413L1129.864 237Zm-50.614-75.573h37.787l-19.76-114.4zM1145.117 237v-42.64h35.013V237Z" aria-label="pyEDAA." class="pyEDAA_Reports_svg__TekoFont" style="fill:#0277bd"/>
  <path d="M1231.227 149.293V237h-31.2V19.987h71.066q32.24 0 32.24 30.506v67.947q0 26.347-23.226 30.16l34.32 88.4H1280.8l-32.587-87.707zm0-104v79.04h30.506q6.24 0 8.32-1.733 2.08-2.08 2.08-8.32V55.347q0-6.24-2.08-7.974-2.08-2.08-8.32-2.08zm134.853 22.534h33.973q32.587 0 32.587 30.853v63.44h-68.293v40.213q0 5.894 2.08 7.974t8.32 2.08h15.946q6.24 0 8.32-2.08t2.08-8.32V188.12h30.507v18.373q0 30.507-32.24 30.507h-33.28q-32.24 0-32.24-30.507V98.68q0-30.853 32.24-30.853zm-1.733 71.413h37.44v-36.747q0-5.893-2.08-7.973-1.734-2.08-7.974-2.08h-16.986q-6.24 0-8.32 2.08t-2.08 7.973zm147.679-71.413h12.133q31.547 0 31.547 30.853v107.813q0 30.507-31.546 30.507h-12.134q-16.987 0-21.493-13.52v61.36h-31.2V67.827h31.2v13.52q4.507-13.52 21.493-13.52zm12.48 133.813v-98.453q0-6.24-2.08-7.974-2.08-2.08-8.32-2.08h-12.133q-6.24 0-9.013 2.774-2.427 2.773-2.427 9.36v94.293q0 6.587 2.427 9.36 2.773 2.773 9.013 2.773h12.133q6.24 0 8.32-1.733 2.08-2.08 2.08-8.32zm89.786-133.813h37.094q32.24 0 32.24 30.853v107.813q0 30.507-32.24 30.507h-37.094q-31.893 0-31.893-30.507V98.68q0-30.853 31.893-30.853zm38.48 134.16V102.84q0-6.24-2.08-8.32t-8.32-2.08h-19.066q-6.24 0-8.32 2.08-1.734 2.08-1.734 8.32v99.147q0 6.24 1.734 8.32 2.08 2.08 8.32 2.08h19.066q6.24 0 8.32-2.08t2.08-8.32zM1770.985 67.48h6.934v27.04h-12.48q-21.84 0-21.84 25.653V237h-31.2V67.827h31.2v20.8q2.773-9.014 9.706-14.907 7.28-6.24 17.68-6.24zm81.12 25.653h-23.227v107.12q0 6.24 1.734 8.32 2.08 1.734 8.32 1.734h13.173V237h-22.187q-32.586 0-32.586-30.507V93.133h-15.947V67.827h15.947V39.053h31.546v28.774h23.227zm75.227 109.894v-28.08q0-6.24-2.08-7.974-2.08-2.08-8.32-2.08h-17.68q-32.24 0-32.24-30.506V98.68q0-30.853 32.24-30.853h25.306q32.587 0 32.587 30.853v16.293h-30.507V101.8q0-6.24-2.08-7.973-2.08-2.08-8.32-2.08h-8.32q-6.24 0-8.32 2.08-2.08 1.733-2.08 7.973v29.12q0 6.24 2.08 8.32 2.08 1.733 8.32 1.733h18.027q31.893 0 31.893 30.854v34.666q0 30.507-32.24 30.507h-25.653q-32.24 0-32.24-30.507v-16.64h30.507v13.174q0 6.24 2.08 8.32 2.08 1.733 8.32 1.733h8.32q6.24 0 8.32-1.733 2.08-2.08 2.08-8.32z" aria-label="Reports" class="pyEDAA_Reports_svg__TekoFont" style="fill:#29b6f6"/>
</svg>
